<?xml version="1.0" standalone="no"?>
<!DOCTYPE svg PUBLIC "-//W3C//DTD SVG 20010904//EN"
 "http://www.w3.org/TR/2001/REC-SVG-20010904/DTD/svg10.dtd">
<svg version="1.0" xmlns="http://www.w3.org/2000/svg"
 width="1280.000000pt" height="374.000000pt" viewBox="0 0 1280.000000 374.000000"
 preserveAspectRatio="xMidYMid meet">
<metadata>
Created by potrace 1.15, written by Peter Selinger 2001-2017
</metadata>
<g transform="translate(0.000000,374.000000) scale(0.100000,-0.100000)"
fill="#e91e63" stroke="none">
<path d="M5855 3579 c-811 -20 -1764 -86 -2825 -194 -468 -48 -795 -85 -820
-93 -24 -7 -26 -13 -35 -107 l-10 -100 -1014 -3 c-804 -2 -1012 -5 -1008 -15
3 -6 134 -279 291 -604 l285 -593 -285 -592 c-157 -326 -288 -599 -291 -605
-4 -10 204 -13 1008 -15 l1014 -3 10 -100 c9 -94 11 -100 35 -107 40 -13 924
-106 1445 -153 857 -77 1515 -116 2280 -136 866 -22 1969 25 3210 136 524 48
1405 140 1445 153 24 7 26 13 35 107 l10 100 1014 3 c804 2 1012 5 1008 15 -3
6 -134 279 -291 605 l-285 592 285 593 c157 325 288 598 291 604 4 10 -204 13
-1008 15 l-1014 3 -10 100 c-9 94 -11 100 -35 107 -39 12 -918 105 -1445 153
-827 74 -1532 117 -2255 135 -422 11 -585 11 -1035 -1z"/>
</g>
</svg>
